<svg width="24" height="24" viewBox="0 0 24 24" fill="none" xmlns="http://www.w3.org/2000/svg">
<path d="M11.5733 2.26318C12.0726 2.27618 12.4466 2.58807 12.6222 2.95557C12.8026 3.33349 12.802 3.81314 12.5499 4.21533L12.5489 4.21436C11.9199 5.22099 11.6509 6.41192 11.7853 7.59131C11.9196 8.77078 12.4507 9.87006 13.2901 10.7095C14.1296 11.5488 15.2289 12.0791 16.4083 12.2134C17.5877 12.3476 18.7777 12.0778 19.7843 11.4487C20.1855 11.198 20.6645 11.1953 21.0431 11.3755C21.4361 11.5628 21.7634 11.9771 21.7335 12.5269C21.6319 14.4075 20.9878 16.2183 19.879 17.7407C18.7701 19.2632 17.2444 20.4323 15.4855 21.106C13.7265 21.7796 11.8101 21.9288 9.96788 21.5366C8.12561 21.1444 6.43655 20.2268 5.10459 18.895C3.77275 17.5633 2.85452 15.8748 2.46202 14.0327C2.06956 12.1905 2.21919 10.2732 2.89268 8.51416C3.56613 6.75542 4.73481 5.22958 6.25694 4.12061C7.77937 3.01154 9.59097 2.36687 11.4718 2.26514L11.5733 2.26318ZM11.0548 3.80615C9.64299 3.96867 8.29396 4.49246 7.14073 5.33252C5.85252 6.27096 4.86392 7.56285 4.29405 9.05127C3.72423 10.5396 3.59674 12.1615 3.92881 13.7202C4.26094 15.2789 5.03819 16.7076 6.16514 17.8345C7.29217 18.9614 8.72155 19.7379 10.2804 20.0698C11.8391 20.4017 13.4611 20.2746 14.9493 19.7046C16.4374 19.1345 17.7289 18.1461 18.6671 16.8579C19.5072 15.7045 20.0302 14.3549 20.1925 12.9429C18.9852 13.5907 17.6067 13.8594 16.2384 13.7036C14.7218 13.5309 13.3079 12.8493 12.2286 11.77C11.1494 10.6907 10.4677 9.27677 10.295 7.76025C10.1393 6.39216 10.4071 5.01327 11.0548 3.80615Z" fill="#999999"/>
</svg>
