<svg width="24" height="24" viewBox="0 0 24 24" fill="none" xmlns="http://www.w3.org/2000/svg">
<path d="M11.25 21V20C11.25 19.5858 11.5858 19.25 12 19.25C12.4142 19.25 12.75 19.5858 12.75 20V21C12.75 21.4142 12.4142 21.75 12 21.75C11.5858 21.75 11.25 21.4142 11.25 21ZM5.8125 17.127C6.10539 16.8341 6.58015 16.8341 6.87305 17.127C7.16594 17.4198 7.16594 17.8946 6.87305 18.1875L6.16602 18.8945C5.8731 19.1872 5.39828 19.1873 5.10547 18.8945C4.81266 18.6017 4.81283 18.1269 5.10547 17.834L5.8125 17.127ZM17.127 17.127C17.4198 16.8341 17.8946 16.8341 18.1875 17.127L18.8945 17.834C19.1872 18.1269 19.1873 18.6017 18.8945 18.8945C18.6017 19.1873 18.1269 19.1872 17.834 18.8945L17.127 18.1875C16.8341 17.8946 16.8341 17.4198 17.127 17.127ZM15.25 12C15.25 10.2051 13.7949 8.75 12 8.75C10.2051 8.75 8.75 10.2051 8.75 12C8.75 13.7949 10.2051 15.25 12 15.25C13.7949 15.25 15.25 13.7949 15.25 12ZM4 11.25C4.41421 11.25 4.75 11.5858 4.75 12C4.75 12.4142 4.41421 12.75 4 12.75H3C2.58579 12.75 2.25 12.4142 2.25 12C2.25 11.5858 2.58579 11.25 3 11.25H4ZM21 11.25C21.4142 11.25 21.75 11.5858 21.75 12C21.75 12.4142 21.4142 12.75 21 12.75H20C19.5858 12.75 19.25 12.4142 19.25 12C19.25 11.5858 19.5858 11.25 20 11.25H21ZM5.10547 5.10547C5.39828 4.81266 5.8731 4.81283 6.16602 5.10547L6.87305 5.8125C7.16594 6.10539 7.16594 6.58015 6.87305 6.87305C6.58015 7.16594 6.10539 7.16594 5.8125 6.87305L5.10547 6.16602C4.81283 5.8731 4.81266 5.39828 5.10547 5.10547ZM17.834 5.10547C18.1269 4.81283 18.6017 4.81266 18.8945 5.10547C19.1873 5.39828 19.1872 5.8731 18.8945 6.16602L18.1875 6.87305C17.8946 7.16594 17.4198 7.16594 17.127 6.87305C16.8341 6.58015 16.8341 6.10539 17.127 5.8125L17.834 5.10547ZM11.25 4V3C11.25 2.58579 11.5858 2.25 12 2.25C12.4142 2.25 12.75 2.58579 12.75 3V4C12.75 4.41421 12.4142 4.75 12 4.75C11.5858 4.75 11.25 4.41421 11.25 4ZM16.75 12C16.75 14.6234 14.6234 16.75 12 16.75C9.37665 16.75 7.25 14.6234 7.25 12C7.25 9.37665 9.37665 7.25 12 7.25C14.6234 7.25 16.75 9.37665 16.75 12Z" fill="#999999"/>
</svg>
