<svg width="742" height="403" viewBox="0 0 742 403" fill="none" xmlns="http://www.w3.org/2000/svg">
<path d="M279.272 183.103C278.264 182.095 276.708 181.969 275.564 182.726L275.103 183.103L274.513 183.693C273.96 184.246 273.65 184.998 273.65 185.78C273.651 186.561 273.961 187.31 274.513 187.862L275.103 188.452C276.254 189.604 278.12 189.603 279.272 188.452L279.862 187.862C280.414 187.31 280.729 186.561 280.73 185.78C280.73 184.998 280.415 184.246 279.862 183.693L279.272 183.103Z" fill="white"/>
<path fill-rule="evenodd" clip-rule="evenodd" d="M741.625 1.51022C740.831 0.08885 739.036 -0.418842 737.614 0.37492C653.873 47.1294 558.566 99.5659 464.961 150.044L437.963 164.581C404.065 182.783 370.56 200.624 338.089 217.742C338.064 213.991 337.012 210.765 334.778 208.382C330.845 204.187 324.518 203.873 318.026 206.186C311.432 208.536 303.893 213.789 296.311 222.13C288.945 230.232 283.909 234.544 280.561 236.259C278.906 237.106 278.066 237.105 277.745 237.037C277.559 236.998 277.207 236.877 276.749 236.041C276.253 235.137 275.814 233.69 275.489 231.584C275.17 229.514 274.99 227.004 274.899 224.103C274.788 220.524 274.813 216.516 274.849 212.161L274.853 211.652L274.856 211.283C274.877 208.783 274.899 206.174 274.899 203.469C274.898 202.182 274.064 201.045 272.837 200.658C271.609 200.272 270.273 200.728 269.535 201.783C255.556 221.796 245.383 233.573 238.094 239.6C234.433 242.627 231.751 243.988 229.884 244.389C228.228 244.745 227.293 244.352 226.548 243.616C225.617 242.697 224.732 240.962 224.079 238.197C223.44 235.494 223.095 232.14 222.978 228.346C222.849 224.143 223.002 219.534 223.29 214.879C222.452 215.404 221.613 215.935 220.771 216.467L220.732 216.491L220.649 216.544L220.577 216.589L220.564 216.598L219.842 217.054L218.617 217.825L218.01 218.207L217.183 218.724C217.041 222.086 216.987 225.401 217.084 228.525C217.206 232.516 217.572 236.308 218.338 239.551C219.09 242.731 220.311 245.744 222.403 247.81C224.681 250.06 227.689 250.893 231.124 250.155C234.348 249.462 237.902 247.408 241.852 244.141C248.731 238.453 257.569 228.428 268.945 212.77C268.912 216.917 268.897 220.827 269.005 224.286C269.099 227.291 269.287 230.07 269.659 232.481C270.025 234.854 270.599 237.085 271.578 238.871C272.593 240.724 274.177 242.31 276.526 242.808C278.738 243.276 281.033 242.643 283.248 241.509C287.64 239.26 293.297 234.21 300.674 226.096C307.836 218.218 314.6 213.669 320.004 211.743C325.509 209.781 328.878 210.715 330.474 212.418C331.792 213.823 332.685 216.563 331.907 221.004C300.081 237.76 269.295 253.797 240.156 268.746C165.226 307.188 101.263 338.46 58.5635 356.615C37.1389 365.724 21.3189 371.42 12.1849 373.149C9.91804 373.578 8.20913 373.731 7.0042 373.679C6.52671 373.659 6.19742 373.599 5.97797 373.55C6.1662 372.909 6.6763 371.854 7.77263 370.323C12.5464 363.654 23.7689 352.761 39.9674 339.025C56.0814 325.361 76.8952 309.072 100.629 291.65C117.938 278.944 136.789 265.648 156.486 252.335L164.784 246.451C170.135 242.861 177.762 237.779 186.849 231.813C192.858 227.867 208.117 218.326 221.84 209.796L248.259 194.414C253.353 191.442 258.436 188.521 263.497 185.661C319.966 153.756 373.298 129.598 409.459 124.673C427.629 122.198 440.464 124.716 447.539 132.307C451.314 136.358 453.745 142.182 454.311 150.206L459.926 147.047C458.961 139.266 456.268 133.021 451.857 128.287C442.72 118.482 427.27 116.298 408.661 118.832C371.264 123.926 317.053 148.627 260.597 180.525C248.416 187.407 236.116 194.645 223.831 202.101C223.457 201.393 222.808 200.841 221.987 200.623C220.598 200.255 219.143 200.937 218.546 202.244C217.876 203.713 217.215 205.143 216.563 206.533C202.827 214.972 189.145 223.659 175.727 232.441C175.346 230.004 175.041 227.432 174.825 224.792C174.056 215.425 174.352 205.842 175.202 199.751C175.42 198.181 174.357 196.718 172.797 196.439C171.238 196.161 169.74 197.167 169.401 198.715C167.446 207.65 162.206 218.329 155.609 227.221C152.323 231.65 148.757 235.561 145.178 238.549C141.573 241.559 138.106 243.506 135.025 244.246C134.367 244.403 133.982 244.394 133.791 244.364C133.634 244.34 133.591 244.306 133.572 244.29C133.465 244.199 133.108 243.755 132.863 242.317C132.631 240.95 132.576 239.17 132.616 236.997C132.638 235.785 132.68 234.68 132.724 233.526C132.765 232.441 132.809 231.305 132.839 230.002C132.948 225.216 132.83 219.656 130.851 215.293C129.82 213.022 128.251 210.986 125.908 209.572C123.578 208.166 120.723 207.515 117.356 207.599C115.67 207.641 114.058 207.95 112.517 208.461C118.432 188.815 121.12 172.188 121.748 158.518C122.781 136.07 118.31 121.311 113.33 114.45C112.373 113.133 110.528 112.844 109.211 113.8C107.894 114.757 107.601 116.598 108.556 117.915C112.423 123.242 116.856 136.442 115.854 158.246C115.186 172.771 112.094 190.984 104.922 212.978C103.006 214.652 101.264 216.602 99.7019 218.664C95.1696 224.649 91.6692 232.181 89.3603 238.767C88.2007 242.075 87.3224 245.199 86.7575 247.84C86.2119 250.391 85.8968 252.762 86.0436 254.433C86.0823 254.873 86.165 255.384 86.3411 255.891C86.5053 256.364 86.855 257.127 87.6251 257.705C88.5288 258.385 89.5973 258.508 90.5104 258.281C91.2909 258.085 91.8779 257.663 92.2456 257.349C92.9907 256.712 93.6708 255.791 94.2981 254.795C94.9574 253.749 95.6879 252.41 96.4893 250.77L96.529 250.685C102.05 238.449 106.485 227.031 110.009 216.428C112.451 214.585 114.968 213.562 117.505 213.498C120.034 213.435 121.712 213.927 122.859 214.619C123.992 215.303 124.844 216.322 125.482 217.727C126.838 220.716 127.05 224.999 126.939 229.868C126.916 230.853 126.875 232.014 126.835 233.152C126.788 234.466 126.741 235.796 126.721 236.888C126.68 239.118 126.718 241.362 127.048 243.304C127.366 245.173 128.04 247.327 129.75 248.782C131.626 250.378 134.019 250.554 136.403 249.981C140.694 248.951 144.968 246.405 148.956 243.076C152.97 239.724 156.847 235.448 160.344 230.736C163.38 226.643 166.171 222.16 168.534 217.583C168.601 220.123 168.734 222.711 168.945 225.278C169.24 228.874 169.686 232.525 170.338 235.996C144.364 253.129 119.471 270.503 97.1388 286.896C73.3276 304.375 52.3969 320.747 36.1501 334.524C19.9885 348.228 8.22656 359.553 2.97365 366.892C1.64229 368.752 0.631323 370.57 0.212248 372.276C-0.22991 374.079 -0.0758362 376.196 1.59047 377.769C3.01726 379.116 5.00619 379.498 6.7464 379.574C8.59373 379.654 10.8046 379.413 13.2805 378.944C23.1228 377.081 39.4893 371.134 60.8688 362.044C103.779 343.799 167.905 312.44 242.848 273.991C270.364 259.875 299.346 244.793 329.285 229.05C327.373 233.272 324.449 238.125 320.301 243.532C317.714 244.331 315.659 245.359 314.089 246.491C312.72 247.479 311.655 248.591 310.961 249.744C310.342 250.773 309.724 252.355 310.252 253.992C310.546 254.903 311.175 255.703 312.092 256.188C312.957 256.646 313.857 256.71 314.59 256.625C316 256.461 317.37 255.704 318.596 254.741C318.734 254.632 318.861 254.51 318.978 254.379C320.692 252.446 322.28 250.554 323.747 248.707C328.971 247.489 337.114 247.211 349.14 249.986C363.05 253.197 374.033 265.71 378.362 282.037C379.932 280.702 381.604 279.254 383.257 277.805C378.01 261.116 366.204 247.873 350.464 244.241C341.555 242.185 334.354 241.66 328.635 242.059C332.467 236.392 335.058 231.24 336.543 226.686C336.732 226.104 336.897 225.526 337.053 224.955C374.879 205.03 414.147 184.1 453.835 162.742C453.324 166.832 452.493 171.315 451.262 176.212C441.441 215.285 422.111 245.792 397.544 270.744L377.663 289.216C375.492 290.963 373.148 292.724 370.895 294.358C367.504 297.001 364.056 299.575 360.557 302.086C328.253 325.269 291.949 342.959 257.687 359.655C247.615 364.562 237.719 369.384 228.154 374.234C217.639 379.566 210.357 383.958 205.884 387.516C203.669 389.279 201.95 390.984 200.917 392.647C199.883 394.311 199.211 396.523 200.352 398.671C201.367 400.581 203.367 401.497 205.086 401.987C206.925 402.512 209.199 402.76 211.734 402.825C216.832 402.956 223.579 402.35 231.337 401.159C262.328 396.403 311.632 382.013 342.973 364.701C374.891 347.069 387.145 319.498 386.218 294.997C386.151 293.237 386.008 291.489 385.806 289.761C418.409 261.708 444.802 226.113 456.983 177.65C458.655 170.999 459.694 164.906 460.116 159.366C556.203 107.608 654.452 53.5575 740.49 5.52094C741.911 4.72671 742.419 2.93189 741.625 1.51022ZM380.279 294.402C374.984 298.734 369.548 302.889 363.993 306.875C331.235 330.383 294.307 348.376 259.97 365.106C249.98 369.974 240.206 374.736 230.821 379.495C220.402 384.777 213.547 388.953 209.553 392.131C207.535 393.737 206.436 394.945 205.929 395.76C205.879 395.841 205.844 395.916 205.81 395.979C205.894 396.02 205.999 396.069 206.128 396.121C206.282 396.183 206.471 396.25 206.702 396.316C207.861 396.646 209.58 396.871 211.888 396.93C216.477 397.048 222.827 396.497 230.439 395.329C260.932 390.649 309.531 376.434 340.117 359.54C370.122 342.966 381.165 317.457 380.323 295.22C380.318 295.073 380.309 294.927 380.301 294.781L380.284 294.493L380.279 294.402Z" fill="white"/>
<path fill-rule="evenodd" clip-rule="evenodd" d="M217.183 218.724C208.593 235.736 201.44 246.166 195.409 251.622C191.631 255.04 187.843 256.919 184.105 256.63C180.267 256.332 177.455 253.839 175.479 250.78C174.714 249.595 174.027 248.253 173.411 246.789C174.977 245.745 176.652 244.631 178.426 243.454C179.024 245.041 179.692 246.431 180.432 247.577C181.884 249.825 183.284 250.651 184.562 250.75C185.941 250.857 188.181 250.21 191.453 247.25C195.71 243.399 200.944 236.324 207.28 224.862C208.358 224.187 209.47 223.497 210.594 222.801L211.855 222.022L211.903 221.993L211.949 221.964L212.149 221.841L212.247 221.78L212.658 221.526L212.711 221.493L212.77 221.457L212.875 221.392L214.603 220.324L215.31 219.887L215.747 219.616L216.201 219.334L216.421 219.197L217.183 218.724ZM275.564 182.726C276.708 181.969 278.264 182.095 279.272 183.103L279.862 183.693C280.415 184.246 280.73 184.998 280.73 185.78C280.729 186.561 280.414 187.31 279.862 187.862L279.272 188.452C278.12 189.603 276.254 189.604 275.103 188.452L274.513 187.862C273.961 187.31 273.651 186.561 273.65 185.78C273.65 184.998 273.96 184.246 274.513 183.693L275.103 183.103L275.564 182.726Z" fill="white"/>
</svg>
